#!OML:ASF F:\VICON\USERDATA\INSTALL\rory3\rory3.ASF
:FULLY-SPECIFIED
:DEGREES
490
root 0.180861 15.6401 3.38914 11.3191 -28.6155 12.6526
lowerback -2.84258 5.75761 9.75272
upperback 4.01495 7.14444 -0.491157
thorax 7.12984 4.00433 -5.22222
lowerneck -1.11648 -9.43081 -14.7447
upperneck 47.1533 -15.9915 6.8935
head 21.3552 -8.20263 3.54729
rclavicle -3.18055e-014 1.27222e-014
rhumerus -29.3202 26.3999 -95.1682
rradius 32.1198
rwrist 8.78444
rhand -30.2094 -56.8213
rfingers 7.12502
rthumb -3.51968 -86.772
lclavicle -3.18055e-014 1.27222e-014
lhumerus -37.7231 -68.1226 109.992
lradius 87.2896
lwrist 24.0314
lhand -10.9365 -21.6615
lfingers 7.12502
lthumb 15.0817 7.76907
rfemur -25.8627 -7.42402 -0.0566967
rtibia 73.636
rfoot -9.10304 -14.2287
rtoes -20.4438
lfemur -52.1802 -24.2939 -29.3399
ltibia 58.0029
lfoot -20.5377 -12.7383
ltoes 17.8267
491
root 0.18532 15.6396 3.3934 11.371 -28.4963 12.6127
lowerback -2.9374 5.67539 9.90959
upperback 4.04584 7.01255 -0.478316
thorax 7.21547 3.95071 -5.30047
lowerneck -0.622134 -9.40301 -14.456
upperneck 46.8822 -16.003 6.76536
head 20.8156 -8.14621 3.31273
rclavicle -6.44062e-014 -9.54166e-015
rhumerus -29.7 26.263 -95.2568
rradius 32.1326
rwrist 9.20569
rhand -31.4016 -56.9821
rfingers 7.12502
rthumb -4.67095 -86.9107
lclavicle -6.44062e-014 -9.54166e-015
lhumerus -37.5373 -68.0141 109.746
lradius 87.246
lwrist 23.6871
lhand -10.4294 -21.6496
lfingers 7.12502
lthumb 15.5701 7.74369
rfemur -25.7897 -7.53962 -0.0463996
rtibia 73.6253
rfoot -9.23092 -14.0868
rtoes -20.1222
lfemur -52.2264 -24.5214 -29.2443
ltibia 58.0052
lfoot -20.1863 -12.9996
ltoes 19.4486
492
root 0.190583 15.6334 3.39222 11.462 -28.4488 12.5832
lowerback -2.93346 5.71014 10.0694
upperback 4.03218 7.05203 -0.503521
thorax 7.23187 3.97902 -5.4097
lowerneck -0.354165 -9.47151 -14.3777
upperneck 46.5694 -16.1442 6.86048
head 20.5323 -8.18504 3.32948
rclavicle -7.31528e-014 -6.04305e-014
rhumerus -29.733 25.8768 -95.302
rradius 31.9244
rwrist 9.23981
rhand -32.0397 -57.1124
rfingers 7.12502
rthumb -5.28704 -87.0265
lclavicle -7.31528e-014 -6.04305e-014
lhumerus -37.9048 -68.2686 110.106
lradius 87.2305
lwrist 23.6349
lhand -11.3531 -21.6319
lfingers 7.12502
lthumb 14.6804 7.82838
rfemur -25.8784 -7.619 -0.0265828
rtibia 73.6683
rfoot -9.15442 -14.057
rtoes -20.1587
lfemur -52.3611 -24.6425 -29.1643
ltibia 58.0358
lfoot -20.0683 -12.9704
ltoes 19.4591
493
root 0.192623 15.6281 3.39244 11.4933 -28.5229 12.6032
lowerback -2.78947 5.74378 10.0668
upperback 3.9559 7.11459 -0.475466
thorax 7.07271 4.00001 -5.38953
lowerneck -1.52609 -9.74396 -14.5309
upperneck 47.8525 -16.2755 6.14831
head 21.9754 -8.32742 3.04603
rclavicle -1.00187e-013 3.81667e-014
rhumerus -29.791 25.445 -95.3307
rradius 31.6092
rwrist 9.60757
rhand -31.3831 -57.2824
rfingers 7.12502
rthumb -4.65302 -87.2113
lclavicle -1.00187e-013 3.81667e-014
lhumerus -38.7801 -68.3312 111.007
lradius 87.2205
lwrist 23.805
lhand -12.9209 -21.7663
lfingers 7.12502
lthumb 13.1695 7.7978
rfemur -26.0003 -7.58944 -0.0439984
rtibia 73.7301
rfoot -9.02978 -14.1521
rtoes -20.2806
lfemur -52.4539 -24.672 -29.1708
ltibia 58.0778
lfoot -20.1706 -12.686
ltoes 18.51
494
root 0.193154 15.6277 3.39279 11.5017 -28.6162 12.6142
lowerback -2.65148 5.71722 10.0544
upperback 3.92496 7.09487 -0.453918
thorax 6.95103 3.9835 -5.37883
lowerneck -1.74012 -9.75652 -14.6134
upperneck 48.1066 -16.271 6.06726
head 22.2848 -8.34383 3.01065
rclavicle 3.81667e-014 -2.22639e-014
rhumerus -30.1569 25.14 -95.4153
rradius 31.6286
rwrist 10.0753
rhand -30.9135 -57.1395
rfingers 7.12502
rthumb -4.1996 -87.0779
lclavicle 3.81667e-014 -2.22639e-014
lhumerus -39.1388 -68.4037 111.331
lradius 87.1484
lwrist 23.914
lhand -13.9302 -22.3828
lfingers 7.12502
lthumb 12.1964 7.24158
rfemur -26.1068 -7.52404 -0.0399624
rtibia 73.781
rfoot -9.10765 -14.1931
rtoes -19.7265
lfemur -52.5155 -24.7398 -29.1359
ltibia 58.0995
lfoot -20.0921 -12.6353
ltoes 19.132
495
root 0.19522 15.6301 3.39376 11.5574 -28.7067 12.633
lowerback -2.67164 5.67377 10.0911
upperback 3.91805 7.03371 -0.468122
thorax 6.95124 3.95545 -5.42049
lowerneck -1.5523 -9.65911 -14.7315
upperneck 47.9058 -16.1872 6.28987
head 22.0884 -8.32125 3.17649
rclavicle 7.07673e-014 -4.45278e-014
rhumerus -30.3619 25.2462 -95.599
rradius 31.5554
rwrist 10.2526
rhand -31.2104 -57.2321
rfingers 7.12502
rthumb -4.48627 -87.1646
lclavicle 7.07673e-014 -4.45278e-014
lhumerus -39.13 -68.4348 111.265
lradius 87.0488
lwrist 23.9934
lhand -13.3693 -22.7895
lfingers 7.12502
lthumb 12.7372 6.80198
rfemur -26.2494 -7.5112 -0.0647254
rtibia 73.8071
rfoot -9.0633 -14.173
rtoes -18.2916
lfemur -52.6355 -24.8361 -29.0591
ltibia 58.1022
lfoot -19.8791 -12.7737
ltoes 20.9586
496
root 0.197569 15.6336 3.40104 11.5616 -28.8599 12.7145
lowerback -2.7856 5.67386 10.0873
upperback 3.93978 7.02069 -0.473479
thorax 7.03846 3.95284 -5.41295
lowerneck -1.23451 -9.57845 -14.9747
upperneck 47.6976 -16.1468 6.56508
head 21.8921 -8.33579 3.38977
rclavicle 3.10104e-014 4.77083e-014
rhumerus -30.1439 25.3905 -95.7059
rradius 31.0643
rwrist 10.2585
rhand -30.7876 -57.2256
rfingers 7.12502
rthumb -4.07802 -87.1663
lclavicle 3.10104e-014 4.77083e-014
lhumerus -39.0699 -68.4 111.238
lradius 86.9895
lwrist 24.0551
lhand -12.0239 -22.5921
lfingers 7.12502
lthumb 14.034 6.91414
rfemur -26.337 -7.4795 -0.201432
rtibia 73.8013
rfoot -8.83175 -14.2029
rtoes -17.6076
lfemur -52.6803 -24.8736 -29.1145
ltibia 58.0957
lfoot -19.7709 -12.8681
ltoes 22.0278
497
root 0.198382 15.635 3.40867 11.5639 -28.973 12.7579
lowerback -2.84824 5.70114 10.0687
upperback 3.96022 7.04788 -0.439716
thorax 7.09451 3.96652 -5.35571
lowerneck -1.092 -9.54609 -15.1642
upperneck 47.6258 -16.1644 6.7701
head 21.87 -8.36255 3.53727
rclavicle 5.725e-014 9.54166e-015
rhumerus -29.9109 25.508 -95.6853
rradius 30.5985
rwrist 9.94792
rhand -30.858 -56.8494
rfingers 7.12502
rthumb -4.14599 -86.7888
lclavicle 5.725e-014 9.54166e-015
lhumerus -38.9843 -68.5636 111.262
lradius 86.9881
lwrist 24.168
lhand -11.4661 -22.6162
lfingers 7.12502
lthumb 14.5715 6.85202
rfemur -26.3756 -7.46829 -0.28549
rtibia 73.7997
rfoot -8.75864 -14.2335
rtoes -18.1107
lfemur -52.6812 -24.8555 -29.1859
ltibia 58.1004
lfoot -19.7318 -12.9088
ltoes 22.2427
